<?xml version="1.0" standalone="no"?>
<!DOCTYPE svg PUBLIC "-//W3C//DTD SVG 20010904//EN"
 "http://www.w3.org/TR/2001/REC-SVG-20010904/DTD/svg10.dtd">
<svg version="1.0" xmlns="http://www.w3.org/2000/svg"
 width="500.000000pt" height="500.000000pt" viewBox="0 0 500.000000 500.000000"
 preserveAspectRatio="xMidYMid meet">

<g transform="translate(0.000000,500.000000) scale(0.100000,-0.100000)"
fill="#000000" stroke="none">
<path d="M1849 2822 c37 -19 60 -46 48 -59 -5 -4 -12 -1 -17 7 -5 8 -12 11
-15 8 -11 -11 5 -28 26 -28 24 0 24 -4 -2 -50 -22 -38 -78 -70 -124 -70 -17 0
-17 -2 -5 -10 23 -15 61 -12 106 9 50 23 79 76 70 126 -8 41 -57 85 -94 85
-26 0 -26 0 7 -18z"/>
<path d="M1600 2815 c-9 -11 -17 -12 -30 -5 -26 14 -36 -6 -16 -29 9 -10 16
-24 16 -32 1 -10 6 -8 18 7 10 11 30 24 45 28 32 8 35 21 8 36 -25 13 -26 13
-41 -5z"/>
<path d="M1355 2781 c-35 -6 -155 -81 -129 -81 5 0 9 -35 10 -78 1 -61 6 -89
27 -134 38 -82 49 -71 14 13 -18 42 -28 117 -16 125 5 3 9 14 9 24 0 48 108
119 183 121 27 0 29 2 12 9 -23 10 -54 10 -110 1z"/>
<path d="M2730 2770 c0 -5 -37 -10 -82 -12 -91 -3 -85 2 -102 -90 -6 -31 -4
-38 9 -38 13 0 15 -24 15 -175 l0 -175 65 0 65 0 0 85 0 85 49 0 49 0 11 50
c6 28 11 55 11 60 0 6 -27 10 -60 10 -60 0 -60 0 -60 30 0 28 1 29 58 32 l57
3 12 50 c7 28 15 60 18 73 5 21 3 22 -55 22 -33 0 -60 -4 -60 -10z"/>
<path d="M3035 2771 c-6 -6 -41 -11 -79 -13 -77 -3 -73 1 -90 -90 l-7 -38 36
0 35 0 0 -175 0 -175 65 0 65 0 0 175 0 175 30 0 c24 0 31 5 36 28 3 15 10 43
15 62 15 58 14 60 -44 60 -29 0 -57 -4 -62 -9z"/>
<path d="M3385 2771 c-129 -17 -198 -110 -198 -266 0 -67 4 -89 26 -132 15
-28 41 -63 60 -77 65 -50 162 -51 231 -4 17 12 32 22 34 23 2 2 -48 145 -53
153 -1 1 -18 -13 -38 -33 -40 -40 -56 -43 -83 -14 -15 17 -19 36 -19 91 0 61
3 72 24 89 31 25 43 24 81 -7 17 -15 32 -25 34 -23 6 9 56 140 56 149 0 8 -94
62 -102 59 -2 -1 -25 -5 -53 -8z m130 -69 c-4 -9 -14 -36 -22 -60 -14 -39 -17
-42 -32 -28 -24 22 -66 29 -91 16 -45 -24 -64 -126 -36 -195 25 -59 74 -68
124 -22 12 11 22 19 22 16 0 -2 9 -28 20 -57 l20 -53 -52 -24 c-62 -29 -85
-31 -136 -10 -85 36 -126 105 -126 215 -1 88 15 139 56 186 41 46 63 57 128
64 67 7 136 -20 125 -48z"/>
<path d="M2147 2743 c-3 -10 -8 -31 -12 -48 -3 -16 -8 -38 -11 -47 -4 -12 0
-18 10 -18 14 0 16 -23 16 -175 l0 -175 65 0 65 0 1 103 0 102 52 -102 52
-103 57 0 58 0 0 240 0 240 -65 0 -65 0 -1 -87 0 -88 -45 88 -44 87 -64 0
c-53 0 -66 -3 -69 -17z"/>
<path d="M1074 2680 c-63 -15 -68 -18 -49 -37 9 -9 28 -35 42 -57 30 -48 64
-82 77 -78 4 2 6 -3 3 -11 -3 -7 1 -14 8 -14 10 0 11 5 4 19 -6 11 -15 16 -22
11 -7 -4 -6 1 2 11 14 16 15 16 25 -1 14 -26 36 -46 42 -40 4 3 -4 16 -15 29
-42 44 -109 143 -104 151 3 5 15 12 27 17 26 11 3 11 -40 0z"/>
<path d="M1285 2670 c-8 -13 4 -32 16 -25 12 8 12 35 0 35 -6 0 -13 -4 -16
-10z"/>
<path d="M3634 2622 c-115 -73 -125 -257 -18 -339 42 -32 117 -35 165 -7 103
60 107 263 7 337 -39 29 -115 33 -154 9z m153 -33 c51 -48 68 -113 52 -190
-13 -62 -49 -105 -99 -120 -48 -15 -81 -7 -123 31 -84 74 -68 253 27 296 44
20 111 12 143 -17z"/>
<path d="M3676 2498 c-31 -43 -15 -128 24 -128 30 0 49 36 43 83 -7 67 -38 87
-67 45z m45 -19 c16 -30 3 -91 -19 -87 -19 3 -27 45 -18 84 8 30 22 31 37 3z"/>
<path d="M1690 2580 c-22 -22 -27 -46 -8 -34 23 14 48 38 48 46 0 14 -20 8
-40 -12z"/>
<path d="M1170 2461 c0 -5 6 -14 14 -20 12 -10 13 -8 9 8 -5 21 -23 30 -23 12z"/>
<path d="M1200 2461 c0 -6 4 -13 10 -16 6 -3 7 1 4 9 -7 18 -14 21 -14 7z"/>
<path d="M1657 2463 c-12 -11 -8 -22 13 -33 16 -9 20 -8 20 6 0 11 -5 14 -16
10 -12 -4 -15 -2 -10 9 6 16 3 19 -7 8z"/>
<path d="M1580 2417 c0 -5 -5 -5 -12 -1 -7 4 -8 3 -4 -4 4 -7 1 -12 -8 -12 -9
0 -16 -4 -16 -10 0 -5 -6 -10 -14 -10 -7 0 -20 -7 -27 -16 -9 -11 -2 -10 25 6
21 11 45 19 52 16 8 -3 11 0 8 9 -6 15 48 31 67 19 8 -4 9 -3 5 4 -8 13 -76
12 -76 -1z"/>
<path d="M3920 2400 c-56 -56 -21 -150 56 -150 30 0 64 47 64 89 0 70 -73 108
-120 61z m88 -12 c20 -25 18 -80 -4 -102 -53 -53 -123 28 -78 92 17 24 65 30
82 10z"/>
</g>
</svg>
