<?xml version="1.0" standalone="no"?>
<!DOCTYPE svg PUBLIC "-//W3C//DTD SVG 20010904//EN"
 "http://www.w3.org/TR/2001/REC-SVG-20010904/DTD/svg10.dtd">
<svg version="1.0" xmlns="http://www.w3.org/2000/svg"
 width="500.000000pt" height="500.000000pt" viewBox="0 0 500.000000 500.000000"
 preserveAspectRatio="xMidYMid meet">

<g transform="translate(0.000000,500.000000) scale(0.100000,-0.100000)"
fill="#000000" stroke="none">
<path d="M1615 2824 c-16 -8 -37 -13 -47 -11 -10 3 -21 1 -24 -4 -8 -14 16
-40 30 -32 6 4 16 8 21 9 6 0 15 2 21 2 9 2 39 52 31 52 -1 0 -15 -7 -32 -16z"/>
<path d="M1836 2829 c97 -28 88 -142 -15 -185 -18 -8 -42 -14 -53 -14 -10 0
-16 -4 -13 -10 10 -16 78 -11 115 8 45 25 74 81 66 127 -9 44 -57 85 -99 84
l-32 -1 31 -9z"/>
<path d="M1338 2780 c-14 -4 -46 -23 -70 -41 l-43 -34 6 -81 c4 -56 14 -98 33
-139 14 -32 28 -56 31 -54 2 3 -5 31 -16 63 -10 33 -19 73 -19 91 0 17 -5 36
-12 43 -9 9 -7 13 5 18 9 3 17 12 17 20 0 8 5 14 11 14 5 0 8 4 5 9 -9 13 4
42 18 40 6 -1 28 6 49 15 21 9 64 22 95 27 32 6 59 13 61 15 8 7 -144 2 -171
-6z"/>
<path d="M1860 2770 c0 -6 7 -13 15 -17 24 -9 27 1 5 15 -13 8 -20 8 -20 2z"/>
<path d="M1165 2703 c-11 -2 -51 -11 -88 -20 -67 -15 -68 -16 -52 -37 8 -11
27 -39 42 -61 33 -51 81 -100 89 -93 3 4 0 16 -6 28 -20 38 -4 32 25 -10 15
-22 32 -37 37 -34 7 4 6 9 -1 13 -22 14 -122 156 -119 170 2 9 21 19 48 24 25
5 49 13 55 18 10 10 5 10 -30 2z"/>
<path d="M1699 2593 c-10 -2 -16 -13 -15 -27 l1 -23 22 21 c23 21 30 37 16 35
-5 -1 -15 -3 -24 -6z"/>
<path d="M1165 2480 c-3 -5 -1 -10 4 -10 6 0 11 5 11 10 0 6 -2 10 -4 10 -3 0
-8 -4 -11 -10z"/>
<path d="M1758 2473 c7 -3 16 -2 19 1 4 3 -2 6 -13 5 -11 0 -14 -3 -6 -6z"/>
<path d="M1180 2451 c0 -6 4 -12 8 -15 5 -3 9 1 9 9 0 8 -4 15 -9 15 -4 0 -8
-4 -8 -9z"/>
<path d="M1213 2439 c-2 -23 3 -25 10 -4 4 8 3 16 -1 19 -4 3 -9 -4 -9 -15z"/>
<path d="M1681 2448 c10 -7 7 -8 -11 -4 -24 5 -24 4 -5 -10 12 -9 21 -11 23
-4 2 5 14 10 27 10 42 0 35 15 -8 17 -29 1 -36 -2 -26 -9z"/>
<path d="M1571 2425 c0 -5 4 -19 9 -30 7 -17 9 -17 9 -3 1 19 43 34 62 22 8
-4 9 -3 5 5 -9 14 -66 11 -66 -4 0 -5 -5 -3 -10 5 -5 8 -9 11 -9 5z"/>
<path d="M1250 2411 c0 -5 7 -12 16 -15 14 -5 15 -4 4 9 -14 17 -20 19 -20 6z"/>
<path d="M1540 2400 c0 -6 7 -10 15 -10 8 0 15 2 15 4 0 2 -7 6 -15 10 -8 3
-15 1 -15 -4z"/>
<path d="M1474 2379 c-7 -12 15 -31 28 -23 4 3 7 13 7 22 -1 15 -2 15 -6 -1
-2 -9 -9 -15 -14 -11 -5 3 -7 10 -4 15 4 5 4 9 1 9 -3 0 -8 -5 -12 -11z"/>
<path d="M1538 2373 c7 -3 16 -2 19 1 4 3 -2 6 -13 5 -11 0 -14 -3 -6 -6z"/>
</g>
</svg>
