<svg xmlns="http://www.w3.org/2000/svg" version="1.0" width="500.000000pt" height="500.000000pt" viewBox="0 0 500.000000 500.000000" preserveAspectRatio="xMidYMid meet">

<g transform="translate(0.000000,500.000000) scale(0.100000,-0.100000)" fill="#ffc008" stroke="none">
<path d="M798 3378 l-198 -120 0 -202 -1 -201 -199 -120 -200 -120 0 -235 0 -235 191 -115 c105 -63 196 -116 203 -118 6 -1 99 51 207 117 l196 119 189 -115 c104 -63 195 -117 202 -120 7 -3 100 48 207 112 l195 118 0 238 0 237 -195 119 -195 118 0 196 c0 174 -2 198 -17 211 -17 14 -323 201 -368 225 -17 9 -50 -8 -217 -109z" fill="#ffc008"/>
<path d="M2080 2390 l0 -280 55 0 55 0 2 180 3 180 136 -177 135 -178 52 -3 52 -3 0 281 0 281 -52 -3 -53 -3 -5 -175 -5 -174 -135 177 -135 177 -52 0 -53 0 0 -280z" fill="#ffc008"/>
<path d="M2677 2663 c-4 -3 -7 -129 -7 -280 l0 -273 60 0 60 0 0 115 0 115 105 0 105 0 0 45 0 45 -105 0 -105 0 0 70 0 70 155 0 155 0 0 50 0 50 -208 0 c-115 0 -212 -3 -215 -7z" fill="#ffc008"/>
<path d="M3144 2656 c-3 -8 -4 -31 -2 -52 l3 -39 93 -3 92 -3 0 -224 0 -225 60 0 60 0 0 225 0 225 90 0 90 0 0 55 0 55 -240 0 c-197 0 -242 -3 -246 -14z" fill="#ffc008"/>
<path d="M3829 2637 c-135 -69 -192 -224 -134 -363 22 -52 91 -120 148 -145 103 -45 249 -22 326 51 l23 23 -35 34 -34 35 -41 -27 c-74 -49 -167 -46 -229 8 -102 89 -81 242 42 298 68 31 148 18 203 -34 l23 -21 37 38 37 37 -38 34 c-51 44 -114 65 -198 65 -56 0 -77 -5 -130 -33z" fill="#ffc008"/>
<path d="M4399 2637 c-268 -138 -168 -532 136 -531 304 0 405 392 136 531 -54 28 -73 33 -136 33 -63 0 -82 -5 -136 -33z m204 -81 c44 -18 95 -78 103 -121 16 -87 -23 -177 -91 -210 -51 -23 -140 -17 -182 13 -17 12 -41 43 -53 68 -73 150 73 313 223 250z" fill="#ffc008"/>
</g>
</svg>